<?xml version="1.0" standalone="no"?>
<!DOCTYPE svg PUBLIC "-//W3C//DTD SVG 20010904//EN"
 "http://www.w3.org/TR/2001/REC-SVG-20010904/DTD/svg10.dtd">
<svg version="1.0" xmlns="http://www.w3.org/2000/svg"
 width="512.000000pt" height="512.000000pt" viewBox="0 0 512.000000 512.000000"
 preserveAspectRatio="xMidYMid meet">
<metadata>
Created by potrace 1.11, written by Peter Selinger 2001-2013
</metadata>
<g transform="translate(0.000000,512.000000) scale(0.100000,-0.100000)"
fill="#000000" stroke="none">
<path d="M0 2560 l0 -2560 2560 0 2560 0 0 2560 0 2560 -2560 0 -2560 0 0
-2560z m2679 1987 c613 -99 1031 -373 1256 -824 100 -200 135 -358 142 -643 6
-236 -8 -355 -56 -500 -32 -94 -112 -261 -166 -346 -51 -79 -151 -191 -227
-253 -42 -34 -67 -62 -65 -71 2 -8 167 -301 365 -650 l362 -635 -733 -3 c-402
-1 -737 0 -743 2 -6 2 -141 224 -300 493 l-289 490 -3 -494 -2 -493 -630 0
-630 0 0 1976 0 1975 808 -4 c693 -3 822 -6 911 -20z"/>
<path d="M1550 2595 l0 -1505 75 0 75 0 0 449 0 449 343 5 c252 4 371 10 452
22 61 10 119 18 129 19 15 1 78 -98 290 -455 149 -251 277 -463 285 -473 10
-12 32 -16 97 -16 46 0 84 2 84 4 0 5 -547 927 -576 971 -13 20 -9 23 74 58
186 79 374 230 470 377 48 74 95 189 118 288 24 107 29 330 10 439 -75 431
-402 729 -912 832 -145 30 -335 41 -696 41 l-318 0 0 -1505z m890 1345 c475
-58 791 -300 873 -665 38 -169 31 -380 -19 -535 -94 -295 -336 -485 -726 -572
-83 -19 -136 -21 -480 -25 l-388 -5 0 906 0 906 328 0 c180 0 366 -5 412 -10z"/>
<path d="M2220 3065 l0 -438 113 5 c184 9 336 73 414 176 97 128 97 386 0 514
-80 104 -228 167 -414 176 l-113 5 0 -438z"/>
</g>
</svg>
